name processed_emg_signals
nRows=60
nColumns=7
 
endheader
time	RGLTMED	RRF	RADDLONG	RBF	RTA	RGM
1.8778000000000015	0.0120926901694295	0.027028358915312	0.0177369637812878	0.1407816514798131	0.0829584834152151	0.0195983651881302
1.8878000000000015	0.0120697583521643	0.0268492838262259	0.0177930653021759	0.1372414759238223	0.0827853375825019	0.0209414794353865
1.8978000000000015	0.0120479268041019	0.0266738110296772	0.0178485515715568	0.1336996063610187	0.0828245237366701	0.0223376245308944
1.9078000000000015	0.0120272182873195	0.026502113011525	0.0179033831725504	0.1301580452436466	0.0830759908726877	0.0237864208874519
1.9178000000000015	0.0120076552285844	0.0263343550882625	0.0179575208080895	0.1266187529410858	0.0835394933771936	0.0252874299879448
1.9278000000000015	0.0119892597027409	0.0261706951746425	0.0180109253845002	0.1230836466378205	0.0842145918014225	0.0268401539818596
1.9378000000000015	0.0119720534139243	0.0260112835636651	0.0180635580938359	0.1195545993973746	0.0851006538214628	0.0284440353424603
1.9478000000000015	0.0119560576744439	0.0258562627193386	0.018115380494579	0.1160334393921699	0.0861968553855668	0.0300984565865964
1.9578000000000015	0.011941293381169	0.0257057670825998	0.0181663545903939	0.1125219492987743	0.0875021820481774	0.0318027400591362
1.9678000000000015	0.0119277809892377	0.0255599228907442	0.0182164429066932	0.1090218658575419	0.0890154304902929	0.0335561477840546
1.9778000000000016	0.0119155404829103	0.0254188480106742	0.018265608564855	0.1055348795951848	0.0907352102257571	0.0353578813842298
1.9878000000000016	0.0119045913434077	0.0252826517862364	0.0183138153539551	0.1020626347083899	0.0926599454929978	0.0372070820720551
1.9978000000000016	0.0118949525136241	0.0251514348998655	0.0183610277998951	0.0986067291061829	0.0947878773316421	0.039102830713021
2.007800000000002	0.0118866423596589	0.025025289248709	0.018407211231791	0.0951687146083598	0.0971170658433474	0.0410441479644761
2.0178000000000016	0.01187967862916	0.0249042978353826	0.0184523318454731	0.0917500972969405	0.0996453926361221	0.0430299944918051
2.027800000000002	0.0118740784065062	0.0247885346735094	0.0184963567639229	0.0883523380172579	0.1023705634513962	0.0450592712642473
2.0378000000000016	0.0118698580648785	0.0246780647082267	0.0185392540944665	0.084976853024969	0.1052901109731023	0.0471308199325305
2.047800000000002	0.0118670332152746	0.0245729437518717	0.0185809929825327	0.0816250147749914	0.1084013978180132	0.0492434232904111
2.0578000000000016	0.0118656186525397	0.0244732184350557	0.0186215436617808	0.0782981528481073	0.1117016197065329	0.0513958058221323
2.067800000000002	0.011865628298499	0.024378926173329	0.0186608775003872	0.0749975550107448	0.1151878088130588	0.0535866343377382
2.0778000000000016	0.0118670751423316	0.0242900951496223	0.0186989670432447	0.0717244684032288	0.1188568372949593	0.0558145186981441
2.087800000000002	0.0118699711783767	0.0242067443126682	0.018735786049798	0.0684801008515942	0.1227054209991537	0.0580780126318293
2.0978000000000017	0.0118743273416458	0.0241288833916077	0.0187713095271878	0.0652656222978734	0.1267301233452549	0.0603756146449907
2.107800000000002	0.0118801534413743	0.0240565129269869	0.0188055137583428	0.0620821663435777	0.1309273593842389	0.0627057690269601
2.1178000000000017	0.0118874580929927	0.0239896243183257	0.0188383763246529	0.0589308319009052	0.1352934000316201	0.0650668669526369
2.127800000000002	0.0118962486489227	0.0239281998884164	0.0188698761229235	0.055812684946008	0.1398243764741054	0.0674572476836346
2.1378000000000017	0.0119065311286192	0.0238722129644815	0.0188999933764312	0.0527287603684635	0.1445162847486339	0.0698751998697717
2.147800000000002	0.0119183101483072	0.0238216279762956	0.0189287096400632	0.0496800639109045	0.1493649904925718	0.0723189629524552
2.1578000000000017	0.0119315888508693	0.0237764005713403	0.0189560077996421	0.0466675741925788	0.1543662338636141	0.0747867286713808
2.1678000000000015	0.0119463688363418	0.0237364777470068	0.0189818720656472	0.043692244810424	0.1595156346276948	0.0772766426757859
2.1778000000000017	0.0119626500934556	0.0237017979998052	0.0190062879616131	0.0407550065110624	0.1648086974129724	0.0797868062412689
2.187800000000002	0.0119804309326404	0.0236722914914687	0.0190292423075504	0.0378567694269529	0.1702408171277215	0.0823152780929256
2.1978000000000018	0.0119997079208789	0.0236478802317713	0.0190507231987758	0.0349984253697682	0.1758072845397367	0.0848600763352959
2.2078000000000015	0.0120204758187733	0.0236284782777906	0.0190707199805501	0.0321808501739154	0.1815032920146035	0.0874191804893388
2.2178000000000018	0.0120427275201594	0.0236139919492715	0.0190892232189296	0.0294049060829728	0.1873239394099047	0.0899905336363664
2.227800000000002	0.0120664539945632	0.0236043200596637	0.0191062246682513	0.0266714441716725	0.1932642401220821	0.0925720446685839
2.237800000000002	0.0120916442327742	0.0235993541623264	0.019121717235709	0.0239813067959321	0.1993191272822346	0.0951615906455902
2.2478000000000016	0.0121182851957653	0.0235989788113226	0.0191356949435339	0.0213353300633125	0.2054834600966581	0.097757019255899
2.257800000000002	0.0121463617671676	0.0236030718361449	0.0191481528893177	0.018734346316172	0.2117520303274611	0.100356151382236
2.267800000000002	0.0121758567094757	0.0236115046296522	0.0191590872050312	0.0161791866196856	0.2181195689081725	0.102956783769054
2.277800000000002	0.0122067506241375	0.0236241424484241	0.0191684950152858	0.0136706832468101	0.2245807526889244	0.1055566917903835
2.2878000000000016	0.0122390219156784	0.0236408447246748	0.0191763743953756	0.0112096721521996	0.2311302113054977	0.1081536323158117
2.297800000000002	0.0122726467600139	0.0236614653888079	0.0191827243296175	0.0087969954270143	0.2377625341662651	0.1107453466720615
2.307800000000002	0.0123075990771033	0.023685853201642	0.0191875446704728	0.0064335037265265	0.2444722775508972	0.1133295636972927
2.317800000000002	0.0123438505081194	0.023713852095303	0.0191908360989024	0.0041200586624047	0.2512539718147034	0.1159040028848794
2.3278000000000016	0.0123813703972915	0.0237453015217507	0.019192600086351	0.0018575351515619	0.2581021286926004	0.118466377613011
2.337800000000002	0.012420125778591	0.0237800368079036	0.0191928388587371	-0.0003531762865329	0.2650112486968083	0.1210143984560505
2.347800000000002	0.0124600813674087	0.0238178895163072	0.0191915553627863	-0.0025111672921574	0.2719758286024211	0.1235457765731654
2.357800000000002	0.0125011995573782	0.0238586878102736	0.019188753235028	-0.0046155094952705	0.2789903690149969	0.1260582271693391
2.3678000000000017	0.0125434404224945	0.0239022568223971	0.0191844367737368	-0.0066652524210111	0.2860493820141883	0.1285494730234581
2.377800000000002	0.0125867617246685	0.0239484190253261	0.0191786109140656	-0.0086594214785261	0.2931473988672178	0.1310172480777599
2.387800000000002	0.0126311189268486	0.0239969946036606	0.0191712812065716	-0.0105970160407001	0.3002789778056112	0.1334593010825022
2.397800000000002	0.012676465211815	0.024047801825857	0.0191624537993076	-0.0124770076221334	0.3074387118580203	0.1358733992892789
2.4078000000000017	0.012722751506728	0.0241006574150944	0.0191521354236106	-0.0142983381624948	0.3146212367312104	0.1382573321859617
2.417800000000002	0.0127699265134852	0.0241553769181679	0.0191403333836894	-0.0160599184221511	0.321821238730471	0.1406089152657964
2.427800000000002	0.0128179367449186	0.0242117750716062	0.0191270555500763	-0.0177606264967903	0.3290334627099195	0.1429259938227569
2.437800000000002	0.0128667265668628	0.0242696661643027	0.0191123103569655	-0.0193993064575662	0.3362527200424339	0.1452064467648674
2.4478000000000018	0.0129162382461358	0.0243288643960007	0.0190961068034204	-0.0209747671230875	0.3434738965982844	0.147448190436928
2.457800000000002	0.0129664120044836	0.024389184231014	0.0190784544583767	-0.0224857809693175	0.3506919607209007	0.1496491824439907
2.467800000000002	0.0130171860785466	0.0244504407465927	0.0190593634693199	-0.0239310831831811	0.3579019711875718	0.1518074254670305
